<svg width="840" height="149" viewBox="0 0 840 149" fill="none" xmlns="http://www.w3.org/2000/svg">
<path d="M1.11719 108.574C1.11719 106.816 1.2474 105.742 1.50781 105.352C1.76823 104.896 2.35417 104.635 3.26562 104.57C4.76302 104.57 5.90234 106.556 6.68359 110.527C7.33464 113.717 7.98568 116.289 8.63672 118.242C11.6315 126.315 16.1237 132.565 22.1133 136.992C28.1029 141.419 35.1016 143.633 43.1094 143.633C52.224 143.633 59.3529 141.224 64.4961 136.406C69.7044 131.589 72.3086 124.915 72.3086 116.387C72.3086 113.197 71.8529 110.234 70.9414 107.5C70.0951 104.766 68.793 102.259 67.0352 99.9805C62.8685 94.7721 53.0378 88.9779 37.543 82.5977C34.9388 81.556 32.9857 80.7422 31.6836 80.1562C22.9596 76.5104 16.2214 71.5299 11.4688 65.2148C6.78125 58.8346 4.4375 51.6406 4.4375 43.6328C4.4375 33.2161 8.14844 24.6549 15.5703 17.9492C23.0573 11.1784 32.5625 7.79297 44.0859 7.79297C52.0938 7.79297 60.2643 10.0716 68.5977 14.6289C71.0065 15.931 72.569 16.582 73.2852 16.582C74.5221 16.582 75.5964 15.3451 76.5078 12.8711C77.4844 10.3971 78.4609 9.16016 79.4375 9.16016C80.2188 9.16016 80.8372 9.58333 81.293 10.4297C81.8138 11.2109 82.0742 12.2526 82.0742 13.5547C82.0742 14.1406 81.9766 15.8984 81.7812 18.8281C81.5859 21.7578 81.4883 24.4271 81.4883 26.8359C81.4883 28.138 81.5859 30.1562 81.7812 32.8906C81.9766 35.625 82.0742 37.6758 82.0742 39.043C82.0742 41.3867 81.9115 42.8841 81.5859 43.5352C81.3255 44.1862 80.7721 44.5443 79.9258 44.6094C78.3633 44.6094 77.1263 42.9167 76.2148 39.5312C75.3685 36.5365 74.5221 34.0951 73.6758 32.207C70.7461 25.8268 66.8073 20.9766 61.8594 17.6562C56.9766 14.2708 51.3125 12.5781 44.8672 12.5781C37.25 12.5781 31.1302 14.6615 26.5078 18.8281C21.9505 22.9948 19.6719 28.4635 19.6719 35.2344C19.6719 44.8698 29.3073 53.9518 48.5781 62.4805L50.2383 63.1641C65.5378 70 76.1172 76.8359 81.9766 83.6719C87.901 90.4427 90.8633 98.8086 90.8633 108.77C90.8633 120.293 86.3385 129.863 77.2891 137.48C68.2396 145.033 56.8464 148.809 43.1094 148.809C33.2135 148.809 23.2526 145.944 13.2266 140.215C10.6875 138.717 9.09245 137.969 8.44141 137.969C7.52995 137.969 6.55339 138.978 5.51172 140.996C4.47005 143.014 3.52604 144.023 2.67969 144.023C1.96354 144.023 1.44271 143.796 1.11719 143.34C0.791667 142.884 0.628906 142.168 0.628906 141.191C0.628906 141.126 0.791667 139.434 1.11719 136.113C1.50781 132.793 1.70312 129.473 1.70312 126.152C1.70312 123.548 1.60547 120.293 1.41016 116.387C1.21484 112.415 1.11719 109.811 1.11719 108.574ZM182.27 74.1992C182.27 70.0326 181.911 67.2982 181.195 65.9961C180.544 64.694 179.307 63.6198 177.484 62.7734C176.573 62.4479 175.661 62.1875 174.75 61.9922C173.904 61.7318 172.992 61.5365 172.016 61.4062C170.258 61.0807 169.118 60.7227 168.598 60.332C168.077 59.8763 167.816 59.2253 167.816 58.3789C167.816 57.8581 168.142 57.4349 168.793 57.1094C169.509 56.7839 170.518 56.6211 171.82 56.6211C172.406 56.6211 174.164 56.7513 177.094 57.0117C180.023 57.2721 182.66 57.4023 185.004 57.4023C186.111 57.4023 187.868 57.3047 190.277 57.1094C192.686 56.9141 194.542 56.8164 195.844 56.8164C197.341 56.8164 198.383 57.2396 198.969 58.0859C199.555 58.8672 199.848 60.3646 199.848 62.5781V122.441C199.848 127.129 200.206 130.449 200.922 132.402C201.638 134.29 202.875 135.69 204.633 136.602C205.674 137.122 207.4 137.513 209.809 137.773H210.004C210.134 137.839 210.297 137.871 210.492 137.871C212.836 138.327 214.008 138.978 214.008 139.824C214.008 140.866 212.38 141.68 209.125 142.266C208.018 142.461 207.107 142.624 206.391 142.754C202.615 143.6 198.676 144.707 194.574 146.074C190.538 147.507 188.227 148.223 187.641 148.223C185.622 148.223 184.223 142.591 183.441 131.328C183.376 130.156 183.311 129.245 183.246 128.594C179.405 134.974 174.75 139.727 169.281 142.852C163.878 145.911 157.53 147.441 150.238 147.441C139.952 147.441 132.432 145.033 127.68 140.215C122.992 135.332 120.648 127.585 120.648 116.973V74.1992C120.648 70.0326 120.29 67.2982 119.574 65.9961C118.923 64.694 117.686 63.6198 115.863 62.7734C114.952 62.4479 114.04 62.1875 113.129 61.9922C112.283 61.7318 111.404 61.5365 110.492 61.4062C108.669 61.0807 107.497 60.7227 106.977 60.332C106.456 59.8763 106.195 59.2253 106.195 58.3789C106.195 57.793 106.521 57.3698 107.172 57.1094C107.823 56.7839 108.767 56.6211 110.004 56.6211C110.85 56.6211 112.771 56.7513 115.766 57.0117C118.76 57.2721 121.332 57.4023 123.48 57.4023C124.522 57.4023 126.247 57.3047 128.656 57.1094C131.065 56.9141 132.921 56.8164 134.223 56.8164C135.72 56.8164 136.762 57.2396 137.348 58.0859C137.934 58.8672 138.227 60.3646 138.227 62.5781V119.805C138.227 126.901 139.789 132.24 142.914 135.82C146.039 139.401 150.759 141.191 157.074 141.191C164.105 141.191 170.062 138.424 174.945 132.891C179.828 127.292 182.27 120.391 182.27 112.188V74.1992ZM247.895 135.625L239.496 144.414C239.105 144.805 238.715 145.098 238.324 145.293C237.999 145.488 237.673 145.586 237.348 145.586C236.892 145.586 236.566 145.423 236.371 145.098C236.241 144.772 236.143 144.089 236.078 143.047V141.387V23.418C236.078 18.4701 235.753 15.1823 235.102 13.5547C234.516 11.9271 233.344 10.8203 231.586 10.2344C230.544 9.84375 228.949 9.51823 226.801 9.25781C226.605 9.25781 226.443 9.22526 226.312 9.16016C224.229 9.02995 222.862 8.80208 222.211 8.47656C221.625 8.15104 221.332 7.66276 221.332 7.01172C221.332 5.83984 223.253 5.05859 227.094 4.66797L227.289 4.57031L232.172 3.98438C234.646 3.65885 237.022 3.33333 239.301 3.00781C241.645 2.61719 243.956 2.22656 246.234 1.83594C247.211 1.57552 248.09 1.38021 248.871 1.25C249.717 1.05469 250.401 0.957031 250.922 0.957031C251.703 0.957031 252.224 1.21745 252.484 1.73828C252.745 2.19401 252.875 3.26823 252.875 4.96094V7.01172V67.168C255.609 63.3919 259.418 60.4948 264.301 58.4766C269.249 56.3932 274.978 55.3516 281.488 55.3516C293.728 55.3516 303.656 59.4857 311.273 67.7539C318.891 76.0221 322.699 86.7643 322.699 99.9805C322.699 114.694 318.663 126.315 310.59 134.844C302.582 143.372 291.612 147.637 277.68 147.637C272.276 147.637 267.198 146.693 262.445 144.805C257.693 142.852 252.842 139.792 247.895 135.625ZM252.289 119.219C252.289 126.836 254.112 132.565 257.758 136.406C261.469 140.247 266.938 142.168 274.164 142.168C284.06 142.168 291.547 138.652 296.625 131.621C301.768 124.525 304.34 114.108 304.34 100.371C304.34 88.0664 301.833 78.4635 296.82 71.5625C291.807 64.6615 284.841 61.2109 275.922 61.2109C268.24 61.2109 262.38 63.2943 258.344 67.4609C254.307 71.5625 252.289 77.6172 252.289 85.625V119.219ZM341.059 119.414C341.059 118.828 341.221 118.307 341.547 117.852C341.872 117.396 342.263 117.168 342.719 117.168C343.565 117.168 344.346 118.405 345.062 120.879C345.779 123.288 346.527 125.273 347.309 126.836C350.043 132.435 353.233 136.569 356.879 139.238C360.525 141.908 364.789 143.242 369.672 143.242C374.555 143.242 378.656 141.777 381.977 138.848C385.362 135.918 387.055 132.37 387.055 128.203C387.055 121.823 380.74 115.215 368.109 108.379L366.742 107.598C357.628 102.845 351.247 98.3203 347.602 94.0234C343.956 89.6615 342.133 84.6484 342.133 78.9844C342.133 71.7578 344.477 65.8984 349.164 61.4062C353.852 56.849 359.971 54.5703 367.523 54.5703C370.583 54.5703 373.871 55.1237 377.387 56.2305C380.902 57.2721 382.953 57.793 383.539 57.793C385.232 57.793 386.859 57.3372 388.422 56.4258C389.984 55.4492 390.863 54.9609 391.059 54.9609C391.514 54.9609 391.905 55.1888 392.23 55.6445C392.556 56.1003 392.719 56.6211 392.719 57.207V77.6172C392.719 78.2682 392.556 78.7891 392.23 79.1797C391.97 79.5703 391.579 79.7656 391.059 79.7656C390.082 79.7656 389.04 78.4635 387.934 75.8594C387.348 74.362 386.794 73.125 386.273 72.1484C383.93 67.6562 381.26 64.3359 378.266 62.1875C375.271 60.0391 371.82 58.9648 367.914 58.9648C363.812 58.9648 360.492 60.0065 357.953 62.0898C355.414 64.1081 354.145 66.7448 354.145 70C354.145 73.125 355.056 75.8268 356.879 78.1055C358.702 80.319 363.324 83.5417 370.746 87.7734C372.113 88.6198 375.043 90.2474 379.535 92.6562C384.027 95 387.413 96.9857 389.691 98.6133C392.947 100.957 395.388 103.952 397.016 107.598C398.643 111.178 399.457 115.378 399.457 120.195C399.457 128.854 396.788 135.658 391.449 140.605C386.176 145.553 378.852 148.027 369.477 148.027C364.333 148.027 358.767 146.628 352.777 143.828C351.02 142.982 349.913 142.559 349.457 142.559C348.611 142.559 347.439 143.177 345.941 144.414C344.509 145.586 343.435 146.172 342.719 146.172C342.198 146.172 341.775 145.977 341.449 145.586C341.189 145.26 341.059 144.87 341.059 144.414V119.414ZM413.227 102.227C413.227 95.5859 414.626 89.2057 417.426 83.0859C420.29 76.901 424.294 71.4648 429.438 66.7773C433.93 62.6758 439.04 59.6159 444.77 57.5977C450.499 55.5794 456.944 54.5703 464.105 54.5703C471.527 54.5703 477.647 55.8398 482.465 58.3789C487.283 60.8529 489.691 63.9779 489.691 67.7539C489.691 69.7721 489.105 71.3672 487.934 72.5391C486.827 73.6458 485.264 74.1992 483.246 74.1992C481.293 74.1992 479.665 73.7435 478.363 72.832C477.126 71.8555 476.02 70.2604 475.043 68.0469C473.415 63.9453 471.723 61.4062 469.965 60.4297C468.272 59.4531 465.635 58.9648 462.055 58.9648C453.201 58.9648 446.169 62.7734 440.961 70.3906C435.818 78.0078 433.246 88.4896 433.246 101.836C433.246 114.336 435.915 124.102 441.254 131.133C446.592 138.099 453.982 141.582 463.422 141.582C467.068 141.582 470.355 141.191 473.285 140.41C476.215 139.564 478.526 138.359 480.219 136.797C481.065 136.081 482.139 134.844 483.441 133.086C484.809 131.263 486.013 130.352 487.055 130.352C487.901 130.352 488.552 130.579 489.008 131.035C489.464 131.426 489.691 132.012 489.691 132.793C489.691 136.699 486.762 140.182 480.902 143.242C475.043 146.302 467.816 147.832 459.223 147.832C444.9 147.832 433.637 143.796 425.434 135.723C417.296 127.585 413.227 116.419 413.227 102.227ZM535.004 75.1758C537.738 69.1862 541.612 64.4987 546.625 61.1133C551.703 57.7279 557.335 56.0352 563.52 56.0352C568.077 56.0352 571.755 57.0117 574.555 58.9648C577.354 60.918 578.754 63.457 578.754 66.582C578.754 69.056 578.135 71.0091 576.898 72.4414C575.661 73.8737 574.001 74.5898 571.918 74.5898C570.355 74.5898 569.053 74.2318 568.012 73.5156C566.97 72.7995 566.091 71.6927 565.375 70.1953C565.18 69.8047 564.919 69.2513 564.594 68.5352C563.031 64.8242 560.297 62.9688 556.391 62.9688C550.466 62.9688 545.616 65.4753 541.84 70.4883C538.064 75.4362 536.176 81.9466 536.176 90.0195V127.812C536.176 131.914 536.501 134.648 537.152 136.016C537.803 137.318 539.073 138.392 540.961 139.238C541.742 139.629 542.589 139.954 543.5 140.215C544.477 140.475 545.486 140.671 546.527 140.801C548.155 141.061 549.229 141.419 549.75 141.875C550.271 142.266 550.531 142.852 550.531 143.633C550.531 144.154 550.271 144.577 549.75 144.902C549.229 145.228 548.513 145.391 547.602 145.391C547.471 145.391 545.16 145.195 540.668 144.805C536.176 144.414 531.749 144.219 527.387 144.219C522.96 144.219 518.5 144.414 514.008 144.805C509.516 145.195 507.237 145.391 507.172 145.391C506.26 145.391 505.512 145.228 504.926 144.902C504.405 144.577 504.145 144.154 504.145 143.633C504.145 142.982 504.372 142.461 504.828 142.07C505.284 141.68 506.391 141.257 508.148 140.801C509.255 140.671 510.264 140.475 511.176 140.215C512.087 139.954 512.934 139.629 513.715 139.238C515.603 138.392 516.872 137.318 517.523 136.016C518.24 134.648 518.598 131.914 518.598 127.812V81.8164C518.598 76.7383 518.044 72.9622 516.938 70.4883C515.831 67.9492 513.975 66.1914 511.371 65.2148C510.655 64.9544 509.874 64.7591 509.027 64.6289C508.181 64.4987 506.944 64.4336 505.316 64.4336C503.428 64.4336 502.224 64.2708 501.703 63.9453C501.182 63.5547 500.922 62.9688 500.922 62.1875C500.922 61.6016 501.443 61.0807 502.484 60.625C503.526 60.1042 505.447 59.5508 508.246 58.9648C513.324 57.9883 518.207 56.8815 522.895 55.6445C527.582 54.4076 529.926 53.7891 529.926 53.7891C531.814 53.7891 533.181 58.0208 534.027 66.4844C534.353 70 534.678 72.8971 535.004 75.1758ZM598.48 12.7734C598.48 9.90885 599.49 7.46745 601.508 5.44922C603.526 3.43099 605.967 2.42188 608.832 2.42188C611.632 2.42188 614.04 3.43099 616.059 5.44922C618.077 7.46745 619.086 9.90885 619.086 12.7734C619.086 15.638 618.077 18.0794 616.059 20.0977C614.105 22.0508 611.697 23.0273 608.832 23.0273C605.967 23.0273 603.526 22.0508 601.508 20.0977C599.49 18.0794 598.48 15.638 598.48 12.7734ZM602.094 73.418C602.094 70.7487 601.801 68.8932 601.215 67.8516C600.694 66.7448 599.717 65.931 598.285 65.4102C597.699 65.1497 596.983 64.9544 596.137 64.8242C595.29 64.694 594.053 64.6289 592.426 64.6289C592.296 64.6289 592.068 64.5964 591.742 64.5312C589.398 64.3359 588.227 63.8151 588.227 62.9688C588.292 61.862 589.854 61.0482 592.914 60.5273C594.346 60.2669 595.518 60.0391 596.43 59.8438C601.052 58.8672 605.642 57.5977 610.199 56.0352C614.757 54.4076 617.165 53.5938 617.426 53.5938C618.207 53.5938 618.76 53.8542 619.086 54.375C619.477 54.8307 619.672 55.5794 619.672 56.6211V127.812C619.672 131.914 619.997 134.648 620.648 136.016C621.299 137.318 622.569 138.392 624.457 139.238C625.238 139.629 626.085 139.954 626.996 140.215C627.973 140.475 628.982 140.671 630.023 140.801C631.716 141.061 632.79 141.419 633.246 141.875C633.767 142.266 634.027 142.852 634.027 143.633C634.027 144.154 633.734 144.577 633.148 144.902C632.562 145.228 631.814 145.391 630.902 145.391C630.772 145.391 628.493 145.195 624.066 144.805C619.639 144.414 615.245 144.219 610.883 144.219C606.456 144.219 601.996 144.414 597.504 144.805C593.012 145.195 590.733 145.391 590.668 145.391C589.757 145.391 589.008 145.228 588.422 144.902C587.901 144.577 587.641 144.154 587.641 143.633C587.641 142.982 587.868 142.461 588.324 142.07C588.78 141.68 589.887 141.257 591.645 140.801C592.751 140.671 593.76 140.475 594.672 140.215C595.583 139.954 596.43 139.629 597.211 139.238C599.099 138.327 600.368 137.188 601.02 135.82C601.736 134.453 602.094 131.784 602.094 127.812V73.418ZM664.301 135.625L655.902 144.414C655.512 144.805 655.121 145.098 654.73 145.293C654.405 145.488 654.079 145.586 653.754 145.586C653.298 145.586 652.973 145.423 652.777 145.098C652.647 144.772 652.549 144.089 652.484 143.047V141.387V23.418C652.484 18.4701 652.159 15.1823 651.508 13.5547C650.922 11.9271 649.75 10.8203 647.992 10.2344C646.951 9.84375 645.355 9.51823 643.207 9.25781C643.012 9.25781 642.849 9.22526 642.719 9.16016C640.635 9.02995 639.268 8.80208 638.617 8.47656C638.031 8.15104 637.738 7.66276 637.738 7.01172C637.738 5.83984 639.659 5.05859 643.5 4.66797L643.695 4.57031L648.578 3.98438C651.052 3.65885 653.428 3.33333 655.707 3.00781C658.051 2.61719 660.362 2.22656 662.641 1.83594C663.617 1.57552 664.496 1.38021 665.277 1.25C666.124 1.05469 666.807 0.957031 667.328 0.957031C668.109 0.957031 668.63 1.21745 668.891 1.73828C669.151 2.19401 669.281 3.26823 669.281 4.96094V7.01172V67.168C672.016 63.3919 675.824 60.4948 680.707 58.4766C685.655 56.3932 691.384 55.3516 697.895 55.3516C710.134 55.3516 720.062 59.4857 727.68 67.7539C735.297 76.0221 739.105 86.7643 739.105 99.9805C739.105 114.694 735.069 126.315 726.996 134.844C718.988 143.372 708.018 147.637 694.086 147.637C688.682 147.637 683.604 146.693 678.852 144.805C674.099 142.852 669.249 139.792 664.301 135.625ZM668.695 119.219C668.695 126.836 670.518 132.565 674.164 136.406C677.875 140.247 683.344 142.168 690.57 142.168C700.466 142.168 707.953 138.652 713.031 131.621C718.174 124.525 720.746 114.108 720.746 100.371C720.746 88.0664 718.24 78.4635 713.227 71.5625C708.214 64.6615 701.247 61.2109 692.328 61.2109C684.646 61.2109 678.786 63.2943 674.75 67.4609C670.714 71.5625 668.695 77.6172 668.695 85.625V119.219ZM776.703 84.3555H817.523C818.826 84.3555 819.737 84.0299 820.258 83.3789C820.844 82.6628 821.137 81.4583 821.137 79.7656C821.137 73.3854 819.346 68.3073 815.766 64.5312C812.185 60.6901 807.432 58.7695 801.508 58.7695C794.867 58.7695 789.366 61.0482 785.004 65.6055C780.642 70.0977 777.875 76.3477 776.703 84.3555ZM775.531 90.2148C775.271 91.7773 775.076 93.4049 774.945 95.0977C774.815 96.7904 774.75 98.4831 774.75 100.176C774.75 111.96 777.745 121.595 783.734 129.082C789.724 136.504 797.439 140.215 806.879 140.215C811.241 140.215 815.049 139.564 818.305 138.262C821.56 136.96 824.815 134.811 828.07 131.816C828.591 131.361 829.242 130.677 830.023 129.766C831.456 128.203 832.693 127.422 833.734 127.422C834.32 127.422 834.776 127.617 835.102 128.008C835.492 128.398 835.688 128.919 835.688 129.57C835.688 133.607 832.204 137.676 825.238 141.777C818.337 145.814 810.232 147.832 800.922 147.832C787.51 147.832 776.443 143.6 767.719 135.137C759.06 126.673 754.73 116.094 754.73 103.398C754.73 97.1484 755.87 91.0938 758.148 85.2344C760.427 79.3099 763.682 74.0365 767.914 69.4141C772.536 64.401 777.615 60.6901 783.148 58.2812C788.747 55.8073 794.997 54.5703 801.898 54.5703C812.25 54.5703 821.072 57.6953 828.363 63.9453C835.655 70.1302 839.301 77.4219 839.301 85.8203C839.301 87.5781 839.008 88.75 838.422 89.3359C837.901 89.9219 836.469 90.2148 834.125 90.2148H775.531Z" fill="#A8A8A8" fill-opacity="0.1"/>
</svg>
